<svg xmlns="http://www.w3.org/2000/svg" width="1440" height="900" viewBox="0 0 1440 900" role="img" aria-label="CyberScope interface overview in dark mode">
  <rect width="1440" height="900" rx="26" fill="#0d110f"/>
  <rect x="1" y="1" width="1438" height="898" rx="25" fill="none" stroke="#314038"/>
  <rect x="0" y="0" width="280" height="900" rx="26" fill="#101512"/>
  <path d="M280 0v900" stroke="#29342e"/>
  <rect x="28" y="28" width="46" height="46" rx="13" fill="#3DCD58"/>
  <circle cx="51" cy="51" r="12" fill="none" stroke="#101512" stroke-width="5"/><path d="M51 32v38M32 51h38" stroke="#101512" stroke-width="5"/>
  <text x="88" y="53" fill="#f4f7f5" font-family="Arial" font-size="21" font-weight="700">Cyber<tspan fill="#3DCD58">Scope</tspan></text>
  <text x="88" y="69" fill="#778078" font-family="monospace" font-size="8" letter-spacing="2">VISUAL FIELD GUIDE</text>
  <g font-family="Arial" font-size="13" fill="#abb5ae">
    <rect x="18" y="104" width="244" height="42" rx="11" fill="#17351f"/><circle cx="36" cy="125" r="4" fill="#3DCD58"/><text x="52" y="130" fill="#d7f5de">Home</text>
    <text x="30" y="177">⌕  Explore</text><text x="30" y="223" fill="#65726a" font-family="monospace" font-size="9">CYBERSECURITY DOMAINS</text>
    <text x="30" y="262">●  Cybersecurity Foundations</text><text x="30" y="301">●  Threats and Attacks</text><text x="30" y="340">●  Identity and Access</text><text x="30" y="379">●  Network Security</text><text x="30" y="418">●  System Hardening</text><text x="30" y="457">●  Cloud Security</text><text x="30" y="496">●  Application Security</text><text x="30" y="535">●  Data Security</text><text x="30" y="574">●  Critical Infrastructure</text><text x="30" y="613">●  Operational Technology</text><text x="30" y="652">●  Incident Response</text>
  </g>
  <rect x="280" y="0" width="1160" height="80" fill="#0f1411"/><path d="M280 80h1160" stroke="#29342e"/>
  <rect x="1070" y="22" width="130" height="38" rx="11" fill="#151b17" stroke="#314038"/><text x="1092" y="46" fill="#dce5df" font-family="Arial" font-size="12">Search  ⌘K</text>
  <rect x="1215" y="22" width="104" height="38" rx="11" fill="#151b17" stroke="#314038"/><circle cx="1240" cy="41" r="13" fill="#3DCD58"/><text x="1234" y="46" fill="#101512" font-family="Arial" font-size="13">☾</text><text x="1270" y="46" fill="#98a39c" font-family="Arial" font-size="11">◉</text>
  <rect x="1330" y="22" width="82" height="38" rx="11" fill="#151b17" stroke="#314038"/><rect x="1335" y="27" width="34" height="28" rx="8" fill="#3DCD58"/><text x="1344" y="46" fill="#101512" font-family="Arial" font-size="10" font-weight="700">EN</text><text x="1380" y="46" fill="#98a39c" font-family="Arial" font-size="10">ES</text>
  <defs><pattern id="grid" width="32" height="32" patternUnits="userSpaceOnUse"><path d="M32 0H0V32" fill="none" stroke="#3DCD58" stroke-opacity=".08"/></pattern><linearGradient id="hero" x1="0" x2="1"><stop stop-color="#101512"/><stop offset=".55" stop-color="#132418"/><stop offset="1" stop-color="#111613"/></linearGradient></defs>
  <rect x="280" y="80" width="1160" height="410" fill="url(#hero)"/><rect x="280" y="80" width="1160" height="410" fill="url(#grid)"/>
  <text x="340" y="144" fill="#7bd98e" font-family="monospace" font-size="11" font-weight="700" letter-spacing="2">CYBERSCOPE / KNOWLEDGE SYSTEM</text>
  <text x="340" y="218" fill="#f4f7f5" font-family="Arial" font-size="48" font-weight="700">See cybersecurity as a</text><text x="340" y="274" fill="#f4f7f5" font-family="Arial" font-size="48" font-weight="700">connected system.</text>
  <text x="340" y="320" fill="#aab6ae" font-family="Arial" font-size="17">A bilingual visual field guide for concepts, architecture, controls,</text><text x="340" y="345" fill="#aab6ae" font-family="Arial" font-size="17">threats and resilient operations.</text>
  <rect x="340" y="382" width="720" height="64" rx="16" fill="#151b17" stroke="#4b5a51"/><text x="370" y="420" fill="#637068" font-family="Arial" font-size="15">⌕   Concepts, acronyms, controls, technologies…</text>
  <text x="340" y="535" fill="#7bd98e" font-family="monospace" font-size="10" font-weight="700" letter-spacing="2">FIELD NOTES</text><text x="340" y="573" fill="#f4f7f5" font-family="Arial" font-size="28" font-weight="700">Featured topics</text>
  <g font-family="Arial">
    <rect x="340" y="606" width="502" height="218" rx="18" fill="#151b17" stroke="#314038"/><text x="368" y="641" fill="#7bd98e" font-family="monospace" font-size="10">CYBERSECURITY FOUNDATIONS</text><text x="368" y="681" fill="#f4f7f5" font-size="21" font-weight="700">Zero Trust</text><text x="368" y="714" fill="#9da9a1" font-size="14">Explicit, contextual and continuously evaluated</text><text x="368" y="736" fill="#9da9a1" font-size="14">access decisions across connected systems.</text><text x="368" y="786" fill="#7bd98e" font-size="13" font-weight="700">View topic  ↗</text>
    <rect x="864" y="606" width="502" height="218" rx="18" fill="#151b17" stroke="#314038"/><text x="892" y="641" fill="#7bd98e" font-family="monospace" font-size="10">SYSTEM HARDENING</text><text x="892" y="681" fill="#f4f7f5" font-size="21" font-weight="700">System hardening fundamentals</text><text x="892" y="714" fill="#9da9a1" font-size="14">Reduce attack surface through minimal software,</text><text x="892" y="736" fill="#9da9a1" font-size="14">services, permissions and exposure.</text><text x="892" y="786" fill="#7bd98e" font-size="13" font-weight="700">View topic  ↗</text>
  </g>
</svg>
